<?xml version="1.0" standalone="no"?>
<!DOCTYPE svg PUBLIC "-//W3C//DTD SVG 20010904//EN"
 "http://www.w3.org/TR/2001/REC-SVG-20010904/DTD/svg10.dtd">
<svg version="1.0" xmlns="http://www.w3.org/2000/svg"
 width="842.000000pt" height="842.000000pt" viewBox="0 0 842.000000 842.000000"
 preserveAspectRatio="xMidYMid meet">
<metadata>
Created by potrace 1.11, written by Peter Selinger 2001-2013
</metadata>
<g transform="translate(0.000000,842.000000) scale(0.100000,-0.100000)"
fill="#000000" stroke="none">
<path d="M4701 6790 c-9 -8 -23 -16 -31 -18 -7 -2 -20 -11 -28 -20 -9 -11 -11
-12 -6 -2 7 13 6 13 -9 1 -10 -8 -20 -11 -23 -8 -6 6 -59 -42 -59 -53 0 -12
-33 -39 -39 -33 -3 4 -6 1 -6 -5 0 -7 0 -14 0 -17 0 -10 -35 -42 -42 -38 -5 2
-8 -5 -8 -16 0 -13 -7 -21 -17 -21 -9 0 -13 -3 -10 -7 4 -3 -4 -16 -18 -28
-13 -13 -21 -26 -18 -29 4 -3 -1 -6 -10 -6 -10 0 -16 -6 -15 -12 2 -7 -3 -12
-11 -10 -8 2 -11 -3 -8 -12 4 -10 1 -13 -7 -10 -8 3 -17 0 -22 -7 -5 -8 -3
-10 7 -4 11 7 12 6 2 -7 -7 -8 -10 -18 -6 -22 4 -4 0 -4 -9 -1 -11 4 -18 0
-23 -14 -3 -12 -11 -19 -16 -16 -5 4 -9 1 -9 -4 0 -6 -8 -11 -17 -11 -14 0
-15 -2 -4 -9 17 -11 -4 -25 -21 -15 -9 5 -9 2 1 -9 12 -15 11 -17 -7 -17 -12
0 -22 -8 -25 -21 -3 -12 -10 -18 -16 -14 -10 6 -16 -8 -12 -28 1 -5 -3 -5 -9
-2 -7 4 -14 -2 -17 -14 -3 -11 -9 -18 -14 -15 -8 5 -13 -10 -10 -29 1 -5 -3
-6 -9 -2 -6 3 -24 -7 -41 -24 -17 -17 -27 -31 -23 -31 4 0 -5 -11 -20 -25 -15
-14 -23 -25 -19 -26 4 0 -2 -4 -14 -9 -13 -5 -23 -17 -23 -25 0 -9 -4 -14 -9
-11 -5 3 -16 -6 -25 -19 -9 -14 -21 -23 -27 -20 -5 4 -9 3 -8 -2 3 -20 -2 -34
-11 -28 -5 3 -10 -1 -10 -10 0 -11 -5 -15 -16 -11 -8 3 -12 2 -9 -4 6 -10 -80
-100 -96 -100 -5 0 -8 -3 -8 -7 3 -20 -2 -34 -11 -28 -5 3 -10 -1 -10 -10 0
-9 -4 -14 -9 -10 -5 3 -12 -3 -16 -14 -3 -11 -12 -22 -20 -25 -8 -3 -15 -12
-15 -21 0 -8 -17 -33 -37 -55 -68 -71 -93 -100 -93 -108 0 -5 -10 -17 -22 -28
-13 -11 -35 -35 -50 -53 -15 -18 -32 -29 -38 -26 -6 4 -10 3 -9 -2 4 -23 -3
-33 -23 -33 -19 0 -20 -2 -8 -10 13 -8 12 -10 -2 -10 -10 0 -18 -7 -18 -16 0
-8 -4 -12 -10 -9 -5 3 -10 -3 -10 -15 0 -12 -4 -19 -9 -15 -5 3 -20 -13 -32
-34 -12 -22 -26 -38 -30 -35 -4 2 -11 -5 -14 -17 -4 -11 -9 -18 -12 -16 -6 7
-43 -30 -43 -44 0 -5 -4 -8 -9 -4 -6 3 -15 -4 -22 -16 -12 -23 -14 -25 -113
-131 -35 -37 -61 -70 -58 -73 3 -2 -3 -7 -12 -11 -9 -3 -16 -11 -16 -16 0 -15
-47 -68 -54 -61 -3 4 -6 -1 -6 -10 0 -9 -7 -17 -15 -17 -8 0 -15 -7 -15 -16 0
-8 -4 -12 -10 -9 -5 3 -10 0 -10 -8 0 -19 -34 -49 -46 -40 -5 5 -6 4 -2 -1 4
-5 0 -15 -10 -23 -11 -10 -12 -12 -2 -8 8 4 6 0 -4 -9 -10 -8 -24 -12 -30 -9
-6 4 -4 -2 4 -12 8 -10 10 -16 4 -12 -7 4 -14 -3 -18 -19 -5 -17 -12 -24 -21
-20 -9 3 -15 -1 -15 -10 0 -10 -6 -14 -14 -11 -10 4 -12 0 -9 -14 4 -13 1 -19
-8 -17 -8 2 -13 -3 -11 -11 2 -8 -3 -11 -12 -8 -9 4 -13 0 -12 -11 2 -9 -4
-23 -11 -31 -8 -8 -10 -17 -6 -20 5 -3 12 -14 16 -24 4 -10 11 -16 16 -13 5 3
11 -1 15 -9 5 -14 -23 -37 -41 -34 -4 1 -15 0 -23 -4 -14 -5 -32 -9 -105 -23
-16 -3 -32 -10 -35 -14 -3 -4 -14 -10 -25 -12 -11 -2 -19 -10 -17 -17 2 -9 -3
-9 -19 0 -12 6 -19 7 -16 2 3 -5 -3 -16 -15 -24 -11 -8 -26 -19 -32 -25 -25
-23 -51 -32 -68 -23 -10 5 -34 39 -54 74 -19 36 -40 67 -45 71 -5 3 -7 10 -4
15 4 5 -1 9 -10 9 -9 0 -14 4 -11 8 3 5 -4 14 -14 22 -10 8 -17 17 -14 22 3 4
0 8 -6 8 -6 0 -8 5 -5 10 3 6 1 10 -5 10 -6 0 -8 5 -5 10 3 6 -1 10 -10 10 -9
0 -14 4 -10 9 3 6 -1 13 -9 18 -8 4 -16 15 -18 23 -2 8 -11 22 -21 31 -9 9
-17 24 -17 33 0 10 -4 14 -10 11 -9 -5 -11 -1 -10 20 1 3 -5 12 -12 20 -31 34
-36 43 -31 49 4 3 1 6 -5 6 -7 0 -12 7 -12 15 0 8 -4 15 -10 15 -5 0 -10 7
-10 15 0 8 -5 15 -11 15 -5 0 -7 5 -4 10 3 6 2 10 -2 10 -5 0 -17 17 -28 38
-11 20 -24 40 -30 44 -5 4 -7 8 -2 8 4 0 -2 9 -13 20 -12 12 -18 25 -15 30 4
6 2 10 -4 10 -6 0 -17 14 -26 30 -9 16 -13 30 -9 30 3 0 -4 9 -17 21 -13 11
-17 18 -9 14 8 -4 6 1 -4 9 -11 9 -17 16 -13 16 4 0 -3 11 -15 25 -13 14 -31
34 -40 45 -23 26 -48 86 -40 96 4 4 1 4 -5 0 -7 -4 -13 -2 -13 3 0 21 -3 26
-21 39 -11 7 -19 18 -19 23 0 5 -9 19 -19 30 -11 12 -25 41 -32 65 -8 24 -19
44 -26 44 -8 0 -16 7 -19 15 -3 8 -14 17 -25 20 -11 4 -16 11 -13 17 4 6 2 8
-4 4 -6 -3 -13 -2 -17 4 -4 6 -11 8 -16 5 -5 -4 -9 0 -9 7 0 8 -3 9 -8 3 -10
-14 -65 -14 -74 -1 -5 7 -8 6 -8 -3 0 -10 -3 -11 -14 -2 -11 9 -17 9 -28 -1
-15 -14 -33 -21 -60 -22 -9 0 -16 -3 -16 -6 2 -27 -2 -32 -19 -19 -14 12 -16
12 -8 0 6 -11 4 -13 -9 -8 -10 4 -15 3 -11 -3 3 -6 -1 -10 -9 -10 -27 0 -30
-2 -52 -25 -17 -18 -24 -21 -34 -12 -10 9 -11 9 -6 0 4 -8 1 -13 -8 -13 -9 0
-16 -4 -16 -10 0 -5 -6 -10 -12 -10 -7 0 -28 -15 -45 -34 -32 -32 -33 -34 -27
-107 l6 -74 -42 -34 -42 -34 6 -61 c11 -97 19 -143 29 -152 3 -4 2 -16 -4 -27
-8 -14 -8 -18 0 -13 12 8 14 0 13 -56 -1 -21 4 -38 10 -38 7 0 7 -4 -1 -13 -6
-8 -8 -17 -4 -21 12 -12 12 -40 1 -47 -9 -6 -8 -12 2 -25 8 -9 15 -38 16 -63
0 -26 4 -53 9 -61 6 -9 4 -11 -5 -5 -9 6 -11 4 -5 -5 13 -21 15 -134 2 -143
-8 -6 -6 -7 5 -3 14 4 17 0 14 -17 -2 -12 2 -28 8 -36 8 -11 8 -13 -1 -8 -8 5
-11 0 -10 -13 1 -11 5 -20 10 -20 5 0 4 -7 -3 -15 -8 -9 -8 -15 -2 -15 6 0 10
-18 10 -40 0 -22 -5 -40 -11 -40 -6 0 -2 -7 9 -15 10 -8 14 -15 7 -15 -6 0 -9
-9 -6 -20 3 -13 0 -20 -8 -20 -9 0 -7 -5 5 -11 15 -9 16 -13 5 -20 -10 -6 -11
-9 -1 -9 6 0 12 -5 12 -11 0 -5 -6 -7 -12 -3 -7 4 -4 -3 7 -16 11 -13 14 -20
7 -16 -9 6 -12 1 -10 -18 2 -14 7 -28 11 -32 4 -4 7 -12 7 -18 0 -6 -5 -4 -10
4 -8 12 -10 11 -10 -7 0 -12 5 -25 10 -28 7 -4 7 -13 0 -24 -6 -12 -5 -22 1
-28 8 -8 7 -13 0 -17 -6 -4 -11 -12 -11 -17 0 -6 5 -7 11 -3 7 4 7 -1 -1 -16
-8 -15 -9 -25 -2 -32 7 -7 7 -16 -1 -29 -9 -14 -9 -21 0 -30 8 -8 9 -18 2 -31
-5 -10 -6 -24 -2 -31 11 -17 12 -137 0 -137 -5 0 -4 -6 2 -14 9 -11 9 -20 2
-34 -7 -13 -7 -22 1 -30 9 -9 8 -12 -3 -12 -12 0 -12 -2 1 -10 11 -7 11 -10 2
-10 -8 0 -10 -5 -6 -12 8 -12 7 -32 -1 -103 -1 -16 1 -35 6 -41 6 -8 4 -14 -7
-18 -16 -6 -16 -8 1 -20 12 -9 14 -15 7 -20 -6 -4 -8 -14 -5 -23 5 -12 3 -14
-8 -8 -11 7 -12 6 -3 -6 11 -15 11 -82 -1 -119 -4 -12 -3 -20 1 -17 8 4 10
-56 3 -73 -4 -11 2 -254 7 -261 3 -5 2 -9 -3 -9 -4 0 -8 -75 -7 -167 1 -113
-3 -170 -10 -175 -7 -5 -6 -8 3 -8 11 0 11 -3 1 -15 -9 -11 -9 -15 -1 -15 7 0
9 -5 4 -13 -4 -6 -8 -25 -9 -42 -1 -16 -4 -65 -7 -108 -4 -57 -2 -76 6 -71 7
3 5 0 -3 -8 -16 -14 -19 -75 -6 -115 5 -15 3 -23 -5 -23 -8 0 -8 -5 2 -17 12
-15 12 -16 -1 -8 -13 8 -13 7 -1 -9 9 -10 11 -20 5 -24 -5 -4 -10 -18 -11 -32
-5 -68 -10 -108 -17 -118 -4 -7 -3 -12 3 -12 7 0 7 -8 2 -22 -8 -24 -8 -122 1
-148 3 -8 11 -34 17 -56 16 -59 32 -69 118 -69 40 0 73 3 73 6 0 3 12 6 28 6
15 0 41 4 57 8 31 7 71 15 93 17 6 1 12 4 12 8 0 4 11 6 25 5 14 -2 25 2 25 8
0 5 3 7 7 4 3 -4 13 -1 21 6 9 6 13 7 9 1 -4 -8 3 -8 28 0 18 6 32 13 30 16
-2 3 8 5 23 5 43 -2 62 12 62 45 0 17 5 30 13 30 8 0 8 3 -2 9 -11 7 -12 13
-4 23 6 7 11 36 11 63 0 31 4 49 11 48 6 -2 11 2 11 8 0 5 5 7 10 4 6 -3 15 6
20 20 13 34 13 38 -2 29 -9 -6 -9 -3 1 9 7 9 11 23 8 31 -3 7 0 19 6 25 6 6 8
11 4 11 -3 0 -2 11 3 24 5 13 6 27 2 30 -3 4 -7 12 -8 19 -2 7 -5 23 -9 37
-11 47 -25 121 -24 128 1 4 0 9 -1 12 -3 9 -10 45 -14 75 -3 17 -7 40 -10 52
-5 25 -17 128 -21 191 -2 23 -8 65 -15 92 -7 28 -9 57 -6 66 3 8 2 12 -4 9
-14 -9 -12 9 2 23 7 7 9 12 5 12 -4 0 -1 13 8 30 8 16 14 33 13 37 -4 14 14
57 38 93 13 19 24 42 24 51 0 10 4 19 9 21 4 1 22 29 38 60 17 32 32 56 35 53
2 -3 11 11 18 30 8 19 17 35 22 35 4 0 8 6 8 13 0 6 23 36 50 66 28 29 50 56
50 60 0 4 27 31 59 61 33 30 57 59 54 65 -4 5 -3 7 1 3 4 -3 17 3 27 13 11 11
27 19 36 17 18 -4 110 -162 119 -206 1 -7 12 -22 25 -33 12 -10 19 -19 15 -19
-4 0 19 -26 50 -57 68 -69 118 -131 139 -177 9 -18 25 -43 37 -55 11 -12 18
-25 15 -27 -3 -3 8 -19 24 -36 15 -17 26 -35 23 -40 -3 -4 0 -8 5 -8 6 0 11
-6 11 -14 0 -8 4 -16 8 -18 17 -6 101 -131 95 -141 -3 -6 -2 -7 4 -4 5 4 16
-5 23 -18 7 -14 17 -25 22 -25 4 0 8 -7 8 -15 0 -8 5 -15 10 -15 6 0 10 -5 10
-10 0 -6 24 -46 52 -89 29 -43 71 -107 93 -142 22 -35 49 -77 60 -94 92 -144
117 -187 112 -191 -3 -4 3 -16 14 -27 11 -12 33 -47 48 -79 16 -31 32 -54 35
-51 3 4 6 -6 6 -21 0 -16 4 -25 10 -21 6 3 10 -3 10 -14 0 -12 5 -21 10 -21 6
0 10 -7 10 -16 0 -8 5 -12 10 -9 6 3 10 -3 10 -15 0 -14 4 -19 13 -14 9 5 9 4
0 -6 -9 -10 -7 -17 8 -33 10 -11 19 -29 19 -39 0 -10 5 -19 10 -19 6 -1 14 -2
19 -3 5 0 12 -4 16 -8 4 -4 17 0 29 8 13 8 26 11 29 7 4 -3 7 0 7 8 0 11 2 11
10 -1 8 -12 10 -12 11 5 0 11 3 15 5 9 3 -8 20 -8 61 2 31 7 60 11 65 8 4 -3
8 -1 8 4 0 5 6 9 13 9 27 2 73 11 89 18 9 4 21 4 27 1 5 -4 12 -2 16 4 4 6 11
8 16 5 5 -4 9 -2 9 4 0 5 9 8 20 6 11 -2 20 0 20 4 0 8 9 10 55 13 14 1 25 6
25 11 0 4 4 6 9 3 24 -15 52 82 31 109 -8 10 -10 16 -10 35 0 5 -9 18 -21 28
-19 18 -19 20 -2 27 10 4 31 9 47 11 16 1 36 10 45 19 19 19 20 88 2 125 -20
43 -58 90 -66 82 -5 -4 -5 -2 -1 5 8 15 -14 63 -29 63 -6 0 -17 11 -23 25 -6
14 -16 25 -22 25 -5 0 -10 9 -10 20 0 11 -9 28 -20 37 -11 10 -20 22 -20 29 0
6 -9 19 -20 29 -11 10 -20 23 -20 30 0 7 -9 20 -20 30 -11 10 -20 22 -20 26 0
11 -129 201 -146 215 -8 6 -14 17 -14 24 0 7 -8 19 -17 26 -11 8 -13 13 -6 14
7 0 10 7 6 17 -5 12 -3 14 8 7 8 -5 26 -9 42 -10 15 -1 28 -2 30 -4 2 -2 16
-5 57 -13 14 -3 36 -8 50 -11 14 -4 63 -8 110 -10 47 -3 97 -7 111 -10 61 -14
397 -13 494 0 155 22 155 22 530 213 33 16 98 48 145 70 47 22 112 56 145 76
33 19 72 41 88 47 15 7 27 16 27 20 0 4 6 8 13 8 7 0 22 7 32 15 11 9 52 36
90 60 39 24 75 49 82 55 7 5 17 10 23 10 5 0 10 4 10 9 0 5 14 14 30 21 17 7
30 15 30 19 0 4 15 15 33 26 32 19 78 57 129 108 15 15 28 25 28 23 0 -3 35
29 79 72 43 42 76 80 74 85 -2 4 1 7 7 7 6 0 9 4 6 9 -3 5 1 11 9 15 8 3 15
12 15 20 0 7 7 17 16 20 13 5 14 9 5 20 -8 10 -9 16 -1 21 13 8 13 45 0 45
-19 0 -10 37 15 64 13 14 21 26 17 26 -4 0 1 5 11 11 9 6 15 14 12 20 -4 5 -2
9 4 9 6 0 8 6 5 14 -3 8 -1 17 5 21 15 9 14 50 -1 63 -36 29 -194 77 -284 87
-27 3 -67 8 -89 12 -60 9 -95 10 -95 2 0 -4 -10 -5 -21 -2 -15 4 -27 0 -35
-12 -8 -11 -14 -15 -14 -10 0 5 -7 0 -16 -11 -8 -10 -12 -12 -8 -4 4 9 -2 6
-13 -5 -11 -11 -18 -26 -16 -32 3 -7 -2 -16 -11 -19 -9 -3 -14 -9 -11 -14 7
-11 -91 -100 -101 -92 -5 4 -6 3 -1 -2 7 -10 -20 -46 -35 -46 -9 0 -48 -37
-48 -45 0 -3 -2 -4 -5 -2 -3 1 -13 -12 -23 -28 -11 -17 -36 -44 -56 -60 -21
-17 -59 -49 -85 -72 -25 -24 -48 -43 -51 -43 -3 0 -37 -29 -75 -65 -39 -36
-73 -65 -76 -65 -3 0 -15 -8 -27 -18 -12 -10 -41 -31 -66 -47 -26 -16 -46 -35
-46 -43 0 -7 -4 -10 -10 -7 -5 3 -10 1 -10 -5 0 -6 -8 -14 -17 -17 -10 -4 -40
-21 -66 -39 -26 -18 -63 -39 -82 -45 -19 -7 -35 -17 -35 -21 0 -4 -6 -8 -13
-8 -7 0 -23 -9 -35 -20 -12 -12 -22 -19 -22 -16 0 3 -11 -6 -25 -19 -74 -68
-234 -88 -400 -51 -11 2 -21 5 -22 6 -2 2 -6 3 -10 4 -45 8 -153 91 -153 117
0 4 -9 10 -19 14 -11 3 -18 11 -15 18 2 7 -6 23 -18 37 -13 14 -25 34 -26 45
-2 11 -7 22 -10 25 -12 9 -63 112 -59 117 3 2 -4 27 -14 55 -14 38 -16 55 -8
65 6 7 15 10 20 7 5 -3 9 -1 9 4 0 15 151 162 166 162 4 0 71 61 146 133 33
31 63 57 68 57 5 0 10 3 12 8 3 6 92 85 162 143 39 32 56 49 89 89 15 19 27
30 27 24 0 -5 8 3 18 17 45 68 63 90 143 174 48 50 108 115 134 145 68 78 67
78 144 155 58 59 137 132 245 229 12 10 48 39 81 64 33 25 66 52 73 60 6 9 12
12 12 8 0 -4 6 -1 14 6 7 7 44 40 81 73 38 33 98 88 134 123 36 34 68 62 71
62 4 0 7 6 8 13 0 6 10 42 21 80 11 37 16 65 11 62 -4 -3 -11 2 -14 11 -4 9 5
26 23 42 24 23 38 46 46 75 2 4 3 19 4 33 1 17 5 23 14 18 7 -5 6 0 -3 11 -9
11 -10 16 -2 11 6 -4 12 -2 12 3 0 6 -4 11 -8 11 -5 0 -15 11 -22 25 -7 14
-16 23 -18 20 -3 -2 -12 3 -21 13 -32 35 -152 102 -181 102 -5 0 -10 4 -10 10
0 5 -3 9 -7 9 -5 -1 -10 0 -13 1 -14 7 -90 5 -90 -3 0 -4 -4 -6 -9 -2 -5 3
-33 -22 -63 -56 -29 -33 -69 -78 -88 -99 -19 -21 -66 -73 -105 -115 -61 -68
-181 -189 -310 -313 -22 -21 -52 -52 -66 -68 -57 -62 -201 -193 -295 -266 -16
-13 -58 -54 -94 -92 -36 -38 -74 -77 -84 -85 -10 -9 -26 -24 -35 -33 -8 -10
-21 -18 -28 -18 -7 0 -13 -3 -13 -7 -1 -12 -77 -93 -88 -93 -6 0 -12 -4 -14
-8 -1 -5 -25 -26 -53 -46 -27 -21 -82 -70 -120 -110 -84 -85 -162 -155 -168
-150 -2 2 -9 -7 -16 -20 l-13 -24 -24 21 c-13 11 -24 27 -24 34 0 7 -4 13 -8
13 -4 0 -24 21 -44 48 -20 26 -46 58 -57 71 -12 13 -21 29 -21 34 0 6 -3 7 -7
4 -3 -4 -12 -2 -20 4 -11 10 -11 16 4 38 23 36 39 51 47 44 3 -4 6 -1 6 6 0 7
6 18 13 25 6 7 32 37 57 67 25 29 62 70 83 89 20 20 37 42 37 49 0 7 5 9 10 6
6 -3 10 2 10 11 0 10 3 15 6 11 7 -7 26 7 58 42 28 31 83 90 127 137 20 22 43
49 51 62 9 12 42 51 74 85 33 35 75 83 94 107 74 93 171 201 234 259 21 20 59
57 85 82 59 59 116 101 124 92 6 -6 11 11 8 30 0 4 4 7 9 7 13 0 50 37 44 43
-3 2 11 21 30 41 20 20 33 36 29 36 -7 0 25 29 80 74 20 17 34 34 31 38 -3 4
0 8 5 8 6 0 11 7 11 16 0 8 5 12 10 9 6 -3 10 -1 10 4 0 6 9 20 20 31 11 11
17 20 14 20 -4 0 4 10 17 23 14 12 26 27 29 32 2 6 15 19 28 30 13 11 46 40
74 65 28 25 55 44 60 42 5 -1 7 2 4 7 -3 5 1 14 9 21 8 7 12 16 9 21 -3 5 0 9
5 9 15 0 89 78 106 111 13 25 17 69 5 69 -3 0 -11 9 -18 20 -10 16 -9 23 5 39
9 11 20 18 25 15 4 -3 8 -1 8 5 0 5 6 16 13 23 47 50 54 102 19 137 -17 18
-185 24 -175 7 4 -5 1 -6 -7 -1 -18 11 -160 13 -160 2 0 -4 -6 -5 -12 0 -23
14 -118 9 -137 -7z m-3124 -2726 c-3 -3 3 -15 14 -27 10 -11 19 -26 19 -33 0
-18 40 -84 51 -84 4 0 6 -7 3 -15 -4 -8 -1 -15 5 -15 6 0 17 -15 25 -32 14
-33 13 -34 -30 -74 -24 -23 -44 -45 -44 -49 0 -13 -42 -45 -51 -39 -5 3 -9 15
-9 27 -1 70 -8 273 -10 277 -3 8 2 54 7 63 2 4 9 7 15 7 6 0 9 -3 5 -6z m1318
-14 c-3 -4 0 -10 6 -12 6 -2 12 -28 14 -58 2 -30 5 -55 5 -55 3 0 9 -42 14
-90 3 -27 8 -61 11 -75 3 -14 8 -63 10 -110 3 -72 9 -125 15 -125 0 0 3 -25 5
-55 3 -30 7 -68 9 -84 l3 -28 -22 28 c-13 16 -22 39 -20 51 1 12 -2 20 -7 17
-18 -12 -54 45 -49 78 0 4 -7 4 -16 1 -9 -4 -14 -2 -10 3 3 6 -3 17 -14 24
-10 8 -19 21 -19 30 0 9 -9 22 -20 30 -11 8 -20 20 -20 27 0 7 -11 20 -24 28
-16 11 -23 23 -21 36 2 11 1 18 -3 16 -10 -5 -42 30 -34 37 3 3 0 6 -6 6 -7 0
-11 6 -9 13 1 6 -4 11 -12 9 -12 -3 -12 0 -1 13 11 13 10 15 -1 10 -10 -4 -24
9 -39 34 -14 22 -29 41 -33 41 -5 0 -5 5 -2 10 3 6 1 10 -4 10 -6 0 -11 4 -11
9 0 7 107 60 127 63 5 1 13 8 20 17 8 10 12 11 13 4 0 -8 12 -5 35 8 19 12 35
17 35 12 0 -4 5 0 11 9 6 11 16 15 26 11 10 -4 14 -2 10 4 -4 6 -1 13 5 16 17
6 30 -2 23 -13z m1209 -1151 c3 -3 -15 -5 -39 -5 -25 0 -45 3 -45 8 0 8 76 6
84 -3z"/>
</g>
</svg>
